<?xml version="1.0" encoding="UTF-8"?><svg id="a" xmlns="http://www.w3.org/2000/svg" viewBox="0 0 264 98"><defs><style>.b{fill:#221f20;font-family:ABCArizonaFlare-Regular, ABC Arizona Flare;font-size:24px;letter-spacing:.04em;}.c{fill:#ebc8f5;}.c,.d{stroke:#000;stroke-miterlimit:10;stroke-width:2px;}.d{fill:#fff;}</style></defs><g><rect class="d" x="34.57" y="5.28" width="224.63" height="10.67"/><path class="d" d="M34.57,42.63h-11.59c-1.91-2.47-4.88-4.07-8.24-4.07-5.75,0-10.42,4.66-10.42,10.42s4.66,10.42,10.42,10.42c3.36,0,6.34-1.6,8.24-4.07h11.59v14.48h224.63v-14.48h-11.63c-1.91,2.46-4.85,4.07-8.2,4.07-5.75,0-10.42-4.66-10.42-10.42s4.66-10.42,10.42-10.42c3.35,0,6.3,1.61,8.2,4.07h11.63v-14.48H34.57v14.48Z"/><rect class="d" x="34.57" y="82.02" width="224.63" height="10.67"/><rect class="c" x="34.57" y="69.82" width="224.63" height="12.2"/><rect class="c" x="34.57" y="15.95" width="224.63" height="12.2"/></g><text class="b" transform="translate(93.8 58.31)"><tspan x="0" y="0">ABOUT</tspan></text></svg>