<?xml version="1.0" encoding="UTF-8"?><svg id="a" xmlns="http://www.w3.org/2000/svg" viewBox="0 0 41 41"><path d="M30.3,5.5c3.14,0,5.7,2.56,5.7,5.7V29.8c0,3.14-2.56,5.7-5.7,5.7H10.7c-3.14,0-5.7-2.56-5.7-5.7V11.2c0-3.14,2.56-5.7,5.7-5.7H30.3m0-2H10.7c-4.25,0-7.7,3.45-7.7,7.7V29.8c0,4.25,3.45,7.7,7.7,7.7H30.3c4.25,0,7.7-3.45,7.7-7.7V11.2c0-4.25-3.45-7.7-7.7-7.7h0Z"/><path d="M20.5,13.5c3.86,0,7,3.14,7,7s-3.14,7-7,7-7-3.14-7-7,3.14-7,7-7m0-2c-4.97,0-9,4.03-9,9s4.03,9,9,9,9-4.03,9-9-4.03-9-9-9h0Z"/><circle cx="30.25" cy="11" r="2.5"/></svg>