<?xml version="1.0" encoding="utf-8"?>
<!-- Generator: Adobe Illustrator 27.5.0, SVG Export Plug-In . SVG Version: 6.00 Build 0)  -->
<svg version="1.1" id="a" xmlns="http://www.w3.org/2000/svg" xmlns:xlink="http://www.w3.org/1999/xlink" x="0px" y="0px"
	 viewBox="0 0 186 140" style="enable-background:new 0 0 186 140;" xml:space="preserve">
<style type="text/css">
	.st0{fill:#BFFFB8;stroke:#000000;stroke-width:2;stroke-miterlimit:10;}
	.st1{fill:#F1C5F7;stroke:#000000;stroke-width:2;stroke-miterlimit:10;}
	.st2{fill:#FFFFFF;stroke:#000000;stroke-width:2;stroke-miterlimit:10;}
	.st3{fill:#FFF8AC;stroke:#000000;stroke-width:2;stroke-miterlimit:10;}
</style>
<g>
	<ellipse class="st0" cx="13.9" cy="87.4" rx="8.6" ry="14"/>
	<rect x="69.9" y="26.1" class="st0" width="93.5" height="37.7"/>
	<rect x="17.1" y="5.5" class="st1" width="58.2" height="11.7"/>
	<rect x="13.9" y="73.4" class="st0" width="8.2" height="28.8"/>
	<ellipse class="st0" cx="172.3" cy="87.5" rx="9.5" ry="14"/>
	
		<rect x="163.2" y="72.7" transform="matrix(-1 -6.425205e-05 6.425205e-05 -1 335.4915 174.1484)" class="st0" width="9" height="28.8"/>
	<g>
		<polygon class="st1" points="69.9,17.2 21.9,17.2 21.9,63.8 21.9,110.3 69.9,110.3 69.9,63.8 		"/>
		<polygon class="st1" points="115.8,58.8 115.8,58.8 69.9,58.8 69.9,110.3 115.8,110.4 163.8,110.4 163.8,58.8 		"/>
	</g>
	<circle class="st2" cx="58.7" cy="105.6" r="28"/>
	<circle class="st2" cx="129.1" cy="106.5" r="28"/>
	<polygon class="st1" points="135.2,26.1 150.3,26.1 150.3,13.4 157.9,5.9 128.2,5.9 135.3,12.9 	"/>
	<circle class="st3" cx="58.7" cy="106.5" r="15.9"/>
	<circle class="st3" cx="129.1" cy="106.5" r="15.9"/>
</g>
</svg>
