<?xml version="1.0" encoding="utf-8"?>
<!-- Generator: Adobe Illustrator 27.5.0, SVG Export Plug-In . SVG Version: 6.00 Build 0)  -->
<svg version="1.1" id="a" xmlns="http://www.w3.org/2000/svg" xmlns:xlink="http://www.w3.org/1999/xlink" x="0px" y="0px"
	 viewBox="0 0 264 98" style="enable-background:new 0 0 264 98;" xml:space="preserve">
<style type="text/css">
	.st0{fill:#FFFFFF;stroke:#000000;stroke-width:2;stroke-miterlimit:10;}
	.st1{fill:#CDFDBF;stroke:#000000;stroke-width:2;stroke-miterlimit:10;}
	.st2{fill:#221F20;}
	.st3{font-family:'ABCArizonaFlare-Regular';}
	.st4{font-size:24px;}
</style>
<g>
	<rect x="34.6" y="5.3" class="st0" width="224.6" height="10.7"/>
	<path class="st0" d="M34.6,42.6H23c-1.9-2.5-4.9-4.1-8.2-4.1C9,38.6,4.3,43.2,4.3,49S9,59.4,14.7,59.4c3.4,0,6.3-1.6,8.2-4.1h11.6
		v14.5h224.6V55.3h-11.6c-1.9,2.5-4.9,4.1-8.2,4.1c-5.8,0-10.4-4.7-10.4-10.4s4.7-10.4,10.4-10.4c3.4,0,6.3,1.6,8.2,4.1h11.6V28.1
		H34.6C34.6,28.1,34.6,42.6,34.6,42.6z"/>
	<rect x="34.6" y="82" class="st0" width="224.6" height="10.7"/>
	<rect x="34.6" y="69.8" class="st1" width="224.6" height="12.2"/>
	<rect x="34.6" y="15.9" class="st1" width="224.6" height="12.2"/>
</g>
<text transform="matrix(1 0 0 1 99.8954 58.31)" class="st2 st3 st4">ZINES</text>
</svg>
